<svg enable-background="new 0 0 497 497" height="512" viewBox="0 0 497 497" width="512"
    xmlns="http://www.w3.org/2000/svg">
    <g>
        <path d="m168.353 265.109v53.031l47.919-33.932z" fill="#d16161"/>
        <path d="m295.529 305.248 109.772 140.703c9.223 11.853 21.942 15.555 34.342 15.555h6.343l-90.305-168.149z" fill="#d16161"/>
        <path d="m374.666 278.597c44.219 78.143 119.587 211.333 119.587 211.333 1.787 3.158-.494 7.07-4.123 7.07-12.349 0-24.763-6.245-33.216-19.02l-111.24-167.688z" fill="#d97b7b"/>
        <path d="m98.986 0c48.456 0 99.405 34.46 116.734 102.5 91.583 64.8 107.822 85.753 131.508 127.61 5.17 9.137 15.089 26.665 27.438 48.487l-245.29-33.72c-22.316-28.332-26.641-77.04-26.641-130.714 0 0-54.467-73.192-65.493-84.163-10.922-10.867-1.353-29.983 12.247-29.983 14.602 0 41.023-.017 49.497-.017z" fill="#d97b7b"/>
        <path d="m149.376 224.876c-27.541-27.541-39.286-60.047-39.286-113.721 0-4.874-.018-12.674-.018-12.674s-57.804-57.511-68.83-68.481c-10.922-10.867-5.348-29.631 8.247-29.983-16.752.207-30.268 13.842-30.268 30.643l65.58 106.601c0 42.026 17.034 80.074 44.575 107.615l62.624 8.609c-17.377-8.164-31.684-17.668-42.624-28.609z" fill="#d16161"/>
        <path d="m216.848 273.544c38.655-13.952 62.34-53.432 62.34-80.233-29.826-21.079-50.543-34.667-77.153-34.667 0 0-23.761 0-36.94 0-18.542 0-34.741 9.997-43.527 24.89 6.359 15.733 15.503 39.038 27.809 51.343 15.781 15.781 38.557 28.578 67.471 38.667z" fill="#e7afaf"/>
        <path d="m149.376 224.876c-12.306-12.305-21.449-25.61-27.809-41.343-4.434 7.514-6.986 16.269-6.986 25.624 0 13.949 5.654 26.578 14.795 35.719 10.166 10.166 23.237 19.092 38.979 26.856 17.915 0 48.493 6.864 48.493-8.188-28.914-10.089-51.69-22.886-67.472-38.668z" fill="#d97b7b"/>
        <path d="m216.848 263.544c23.477 8.192 51.004 24.597 82.121 29.364 22.449-12.683 35.703-42.278 35.703-60.387l-55.484-39.211c-.001 26.802-23.685 56.282-62.34 70.234z" fill="#f8e883"/>
        <path d="m216.848 263.544c-14.271 5.15-30.578 8.188-48.493 8.188 20.785 10.251 46.235 18.471 75.82 24.83 21.465-.002 54.794 0 54.794-13.654-31.118-4.767-58.645-11.172-82.121-19.364z" fill="#eec06b"/>
        <path d="m298.969 282.908c39.806 15.375 76.625 8.826 121.42 10.189l-85.717-60.576c0 18.109-13.254 37.705-35.703 50.387z" fill="#80b6fc"/>
        <path d="m430.187 300.022-9.799-6.925c-44.795-1.364-85.5-4.686-121.42-10.189-14.698 8.304-33.329 13.652-54.794 13.654 49.681 10.679 111.023 16.112 181.564 17.096 7.376.103 10.473-9.378 4.449-13.636z" fill="#5a86cc"/>
        <path d="m62.324 73.764c-12.549 0-21.218 4.667-25.941 11.209 0 0-1.737 11.869 2.164 17.048 22.875 30.366 51.723 17.76 52.127 17.752.994-19.489-8.556-46.009-28.35-46.009z" fill="#8c818f"/>
        <path d="m41.086 94.088c-1.463-2.164-3.142-5.282-4.703-9.115-5.601 7.758-5.647 18.156.042 26.573 10.486 15.515 28.239 25.715 48.376 25.715 3.539-3.499 5.489-9.972 5.873-17.489-.404.008-.806.031-1.212.031-20.137 0-37.89-10.2-48.376-25.715z" fill="#655e67"/>
        <path d="m142.824 85.05c.21-2.017.322-4.063.322-6.135 0-32.255-26.617-48.915-49.057-48.915-17.543 0-31.765 14.221-31.765 31.764v12c12.148 12.148 19.2 24.878 21.568 45.776 1.833.173 3.69 10.263 5.569 10.263 23.825 0 44.3-24.286 53.363-44.753z" fill="#fefae3"/>
        <path d="m89.462 119.803c-1.879 0-3.736-.089-5.569-.263.604 5.335.908 11.193.908 17.721 30.151 0 54.956-22.872 58.023-52.211-9.063 20.467-29.538 34.753-53.362 34.753z" fill="#faf0b0"/>
        <path d="m62.324 73.764c-15.249-15.25-43.103-43.104-43.103-43.104-9.438 13.173-22.801 66.507 14.362 90.118 3.535-23.741 13.471-36.133 28.741-47.014z" fill="#fefae3"/>
        <path d="m32.257 135.772c.201-5.463.648-10.437 1.326-14.994-28.708-35.13-21.506-77.56-14.362-90.118-10.708 13.625-17.095 30.807-17.095 49.481 0 22.733 9.465 43.256 24.671 57.842 2.017 1.934 5.357.583 5.46-2.211z" fill="#faf0b0"/>
        <g fill="#655e67">
            <path d="m99.651 82.96c-4.143 0-7.5-3.358-7.5-7.5v-15.48c0-4.142 3.357-7.5 7.5-7.5s7.5 3.358 7.5 7.5v15.48c0 4.142-3.357 7.5-7.5 7.5z"/>
            <path d="m195.988 356.015c-2.929 2.929-7.678 2.928-10.606-.001-2.929-2.929-2.929-7.678.001-10.606 2.187-2.186 3.391-5.094 3.391-8.188 0-6.385-5.194-11.58-11.579-11.58h-30c-6.386 0-11.58 5.195-11.58 11.58 0 3.094 1.204 6.001 3.391 8.188 2.93 2.929 2.93 7.678.001 10.606-2.93 2.93-7.677 2.93-10.606.001-5.021-5.02-7.785-11.694-7.785-18.795 0-14.656 11.924-26.58 26.58-26.58h30c14.656 0 26.579 11.924 26.579 26.58-.002 7.101-2.766 13.776-7.787 18.795z"/>
        </g>
    </g>
</svg>
